<?xml version="1.0" encoding="UTF-8"?><svg xmlns="http://www.w3.org/2000/svg" xmlns:xlink="http://www.w3.org/1999/xlink" contentScriptType="text/ecmascript" width="150" zoomAndPan="magnify" contentStyleType="text/css" viewBox="0 0 150 149.999998" height="149.999998" preserveAspectRatio="xMidYMid meet" version="1.0"><defs><clipPath id="clip-0"><path d="M 2.8125 2.8125 L 147.5625 2.8125 L 147.5625 147.5625 L 2.8125 147.5625 Z M 2.8125 2.8125 " clip-rule="nonzero"/></clipPath></defs><g clip-path="url(#clip-0)"><path fill="rgb(0%, 0%, 0%)" d="M 75.199219 147.574219 C 35.285156 147.574219 2.8125 115.105469 2.8125 75.199219 C 2.8125 35.285156 35.285156 2.8125 75.199219 2.8125 C 115.109375 2.8125 147.578125 35.285156 147.578125 75.199219 C 147.578125 115.105469 115.109375 147.574219 75.199219 147.574219 Z M 75.199219 9.980469 C 39.238281 9.980469 9.980469 39.238281 9.980469 75.199219 C 9.980469 111.15625 39.238281 140.410156 75.199219 140.410156 C 111.160156 140.410156 140.410156 111.15625 140.410156 75.199219 C 140.410156 39.238281 111.160156 9.980469 75.199219 9.980469 Z M 75.199219 9.980469 " fill-opacity="1" fill-rule="nonzero"/></g><path fill="rgb(0%, 0%, 0%)" d="M 71.277344 41.597656 C 71.277344 63.621094 71.277344 85.648438 71.277344 107.671875 C 71.277344 112.003906 77.996094 112.003906 77.996094 107.671875 C 77.996094 85.648438 77.996094 63.621094 77.996094 41.597656 C 77.996094 37.265625 71.277344 37.265625 71.277344 41.597656 Z M 71.277344 41.597656 " fill-opacity="1" fill-rule="nonzero"/><path fill="rgb(0%, 0%, 0%)" d="M 107.675781 71.273438 C 85.652344 71.273438 63.625 71.273438 41.601562 71.273438 C 37.269531 71.273438 37.269531 77.996094 41.601562 77.996094 C 63.625 77.996094 85.652344 77.996094 107.675781 77.996094 C 112.007812 77.996094 112.007812 71.273438 107.675781 71.273438 Z M 107.675781 71.273438 " fill-opacity="1" fill-rule="nonzero"/></svg>