<?xml version="1.0" encoding="UTF-8"?><svg xmlns="http://www.w3.org/2000/svg" xmlns:xlink="http://www.w3.org/1999/xlink" contentScriptType="text/ecmascript" width="150" zoomAndPan="magnify" contentStyleType="text/css" viewBox="0 0 150 149.999998" height="149.999998" preserveAspectRatio="xMidYMid meet" version="1.0"><defs><clipPath id="clip-0"><path d="M 2.273438 2.273438 L 147.773438 2.273438 L 147.773438 147.773438 L 2.273438 147.773438 Z M 2.273438 2.273438 " clip-rule="nonzero"/></clipPath></defs><g clip-path="url(#clip-0)"><path fill="rgb(6.269836%, 5.879211%, 5.099487%)" d="M 130.980469 47.042969 C 130.980469 50.128906 128.472656 52.636719 125.386719 52.636719 L 86.222656 52.636719 C 83.121094 52.636719 80.613281 50.128906 80.613281 47.042969 L 80.613281 24.65625 C 80.613281 21.570312 83.121094 19.0625 86.222656 19.0625 L 125.386719 19.0625 C 128.472656 19.0625 130.980469 21.570312 130.980469 24.65625 Z M 130.980469 125.386719 C 130.980469 128.484375 128.472656 130.980469 125.386719 130.980469 L 86.222656 130.980469 C 83.121094 130.980469 80.613281 128.484375 80.613281 125.386719 L 80.613281 63.824219 C 80.613281 60.734375 83.121094 58.230469 86.222656 58.230469 L 125.386719 58.230469 C 128.472656 58.230469 130.980469 60.734375 130.980469 63.824219 Z M 69.429688 86.222656 C 69.429688 89.308594 66.921875 91.8125 63.824219 91.8125 L 24.65625 91.8125 C 21.570312 91.8125 19.0625 89.308594 19.0625 86.222656 L 19.0625 24.65625 C 19.0625 21.570312 21.570312 19.0625 24.65625 19.0625 L 63.824219 19.0625 C 66.921875 19.0625 69.429688 21.570312 69.429688 24.65625 Z M 69.429688 125.386719 C 69.429688 128.484375 66.921875 130.980469 63.824219 130.980469 L 24.65625 130.980469 C 21.570312 130.980469 19.0625 128.484375 19.0625 125.386719 L 19.0625 103 C 19.0625 99.914062 21.570312 97.40625 24.65625 97.40625 L 63.824219 97.40625 C 66.921875 97.40625 69.429688 99.914062 69.429688 103 Z M 136.574219 2.273438 L 13.472656 2.273438 C 7.285156 2.273438 2.273438 7.285156 2.273438 13.472656 L 2.273438 136.574219 C 2.273438 142.757812 7.285156 147.773438 13.472656 147.773438 L 136.574219 147.773438 C 142.757812 147.773438 147.773438 142.757812 147.773438 136.574219 L 147.773438 13.472656 C 147.773438 7.285156 142.757812 2.273438 136.574219 2.273438 " fill-opacity="1" fill-rule="nonzero"/></g></svg>