<?xml version="1.0" encoding="UTF-8"?><svg xmlns="http://www.w3.org/2000/svg" xmlns:xlink="http://www.w3.org/1999/xlink" contentScriptType="text/ecmascript" width="150" zoomAndPan="magnify" contentStyleType="text/css" viewBox="0 0 150 149.999998" height="149.999998" preserveAspectRatio="xMidYMid meet" version="1.0"><defs><clipPath id="clip-0"><path d="M 7.78125 39.667969 L 61.78125 39.667969 L 61.78125 108.667969 L 7.78125 108.667969 Z M 7.78125 39.667969 " clip-rule="nonzero"/></clipPath><clipPath id="clip-1"><path d="M 89 9.144531 L 148 9.144531 L 148 108.832031 L 89 108.832031 Z M 89 9.144531 " clip-rule="nonzero"/></clipPath><clipPath id="clip-2"><path d="M 86 7.546875 L 145 7.546875 L 145 107.234375 L 86 107.234375 Z M 86 7.546875 " clip-rule="nonzero"/></clipPath><clipPath id="clip-3"><path d="M 51.539062 39.667969 L 107.039062 39.667969 L 107.039062 107.917969 L 51.539062 107.917969 Z M 51.539062 39.667969 " clip-rule="nonzero"/></clipPath></defs><g clip-path="url(#clip-0)"><path fill="rgb(55.288696%, 41.178894%, 94.509888%)" d="M 61.78125 80.714844 L 61.78125 39.683594 L 15.257812 39.683594 L 15.257812 59.769531 L 36.789062 59.769531 L 36.789062 81.964844 C 36.789062 87.277344 33.984375 87.902344 31.84375 87.902344 C 29.039062 87.902344 26.351562 86.144531 23.316406 82.355469 L 21.835938 80.519531 L 7.78125 97.242188 L 8.871094 98.492188 C 14.441406 105.019531 23.238281 108.613281 33.710938 108.613281 C 52.089844 108.652344 61.78125 99 61.78125 80.714844 Z M 61.78125 80.714844 " fill-opacity="1" fill-rule="nonzero"/></g><g clip-path="url(#clip-1)"><path fill="rgb(55.288696%, 41.178894%, 94.509888%)" d="M 133.5 108.832031 C 133.773438 108.828125 134.027344 108.757812 134.265625 108.621094 C 134.503906 108.480469 134.691406 108.292969 134.828125 108.054688 C 151.21875 79.875 152.207031 47.902344 137.90625 10.296875 C 137.839844 10.117188 137.742188 9.957031 137.621094 9.8125 C 137.496094 9.671875 137.347656 9.554688 137.179688 9.464844 C 137.015625 9.375 136.835938 9.320312 136.648438 9.296875 C 136.460938 9.273438 136.273438 9.28125 136.089844 9.328125 C 135.90625 9.371094 135.734375 9.449219 135.578125 9.558594 C 135.421875 9.664062 135.292969 9.796875 135.183594 9.953125 C 135.078125 10.109375 135 10.28125 134.953125 10.46875 C 134.910156 10.652344 134.898438 10.839844 134.921875 11.027344 C 136.34375 24.511719 134.394531 33.050781 129.125 36.363281 C 122.429688 40.558594 109.917969 36.96875 91.9375 25.648438 C 91.765625 25.53125 91.582031 25.457031 91.378906 25.414062 C 91.175781 25.375 90.976562 25.375 90.773438 25.417969 C 90.574219 25.457031 90.386719 25.535156 90.214844 25.652344 C 90.046875 25.765625 89.902344 25.910156 89.789062 26.082031 C 89.675781 26.253906 89.597656 26.441406 89.558594 26.644531 C 89.519531 26.847656 89.519531 27.050781 89.5625 27.253906 C 89.601562 27.457031 89.679688 27.644531 89.792969 27.8125 C 89.90625 27.984375 90.050781 28.128906 90.222656 28.242188 C 110.058594 42.179688 119.894531 55.242188 120.292969 68.195312 C 120.574219 79.285156 113.570312 90.636719 99.421875 101.847656 C 99.273438 101.964844 99.152344 102.101562 99.054688 102.265625 C 98.960938 102.425781 98.894531 102.597656 98.859375 102.78125 C 98.824219 102.964844 98.824219 103.148438 98.855469 103.335938 C 98.886719 103.519531 98.949219 103.695312 99.042969 103.855469 C 99.136719 104.015625 99.257812 104.15625 99.402344 104.277344 C 99.546875 104.394531 99.707031 104.484375 99.882812 104.542969 C 100.0625 104.605469 100.242188 104.632812 100.429688 104.625 C 100.617188 104.617188 100.796875 104.578125 100.96875 104.507812 C 111.882812 99.84375 125.011719 92.765625 132.695312 80.03125 C 133.546875 87.027344 133.296875 95.785156 131.921875 107.089844 C 131.890625 107.277344 131.894531 107.460938 131.929688 107.648438 C 131.96875 107.832031 132.035156 108.003906 132.136719 108.164062 C 132.234375 108.328125 132.359375 108.464844 132.511719 108.578125 C 132.660156 108.691406 132.824219 108.777344 133.003906 108.832031 C 133.167969 108.855469 133.332031 108.855469 133.5 108.832031 Z M 138.429688 21.214844 C 147.738281 50.667969 146.871094 76.4375 135.757812 99.5 C 136.589844 89.285156 136.3125 81.351562 134.921875 74.929688 C 134.832031 74.628906 134.667969 74.382812 134.429688 74.183594 C 134.191406 73.984375 133.917969 73.867188 133.609375 73.832031 C 133.300781 73.796875 133.007812 73.851562 132.734375 73.996094 C 132.457031 74.136719 132.242188 74.347656 132.089844 74.617188 C 127.980469 83.453125 120.960938 90.480469 109.828125 96.703125 C 119.105469 87.261719 123.617188 77.667969 123.355469 68.085938 C 123.046875 57.714844 117.339844 47.402344 105.976562 36.84375 C 117.046875 41.773438 125.226562 42.457031 130.714844 38.972656 C 135.539062 35.988281 138.074219 30.140625 138.429688 21.214844 Z M 138.429688 21.214844 " fill-opacity="1" fill-rule="nonzero"/></g><path fill="rgb(55.288696%, 41.178894%, 94.509888%)" d="M 121.5 36.90625 C 122.210938 36.90625 122.914062 36.835938 123.613281 36.695312 C 124.308594 36.558594 124.984375 36.351562 125.640625 36.078125 C 126.300781 35.804688 126.921875 35.46875 127.511719 35.070312 C 128.105469 34.675781 128.652344 34.222656 129.152344 33.71875 C 129.65625 33.210938 130.105469 32.660156 130.5 32.066406 C 130.894531 31.472656 131.226562 30.847656 131.5 30.1875 C 131.773438 29.523438 131.976562 28.84375 132.117188 28.144531 C 132.253906 27.441406 132.324219 26.734375 132.324219 26.019531 C 132.324219 25.304688 132.253906 24.597656 132.117188 23.894531 C 131.976562 23.195312 131.773438 22.515625 131.5 21.855469 C 131.226562 21.195312 130.894531 20.566406 130.5 19.972656 C 130.105469 19.378906 129.65625 18.828125 129.152344 18.320312 C 128.652344 17.816406 128.105469 17.367188 127.511719 16.96875 C 126.921875 16.570312 126.300781 16.234375 125.640625 15.960938 C 124.984375 15.6875 124.308594 15.480469 123.613281 15.34375 C 122.914062 15.203125 122.210938 15.132812 121.5 15.132812 C 120.789062 15.132812 120.085938 15.203125 119.390625 15.34375 C 118.691406 15.480469 118.015625 15.6875 117.359375 15.960938 C 116.703125 16.234375 116.078125 16.570312 115.488281 16.96875 C 114.898438 17.367188 114.351562 17.816406 113.847656 18.320312 C 113.34375 18.828125 112.894531 19.378906 112.5 19.972656 C 112.105469 20.566406 111.773438 21.195312 111.5 21.855469 C 111.230469 22.515625 111.023438 23.195312 110.886719 23.894531 C 110.746094 24.597656 110.675781 25.304688 110.675781 26.019531 C 110.675781 26.734375 110.746094 27.441406 110.886719 28.144531 C 111.023438 28.84375 111.230469 29.523438 111.5 30.1875 C 111.773438 30.847656 112.105469 31.472656 112.5 32.066406 C 112.894531 32.660156 113.34375 33.210938 113.847656 33.71875 C 114.351562 34.222656 114.898438 34.675781 115.488281 35.070312 C 116.078125 35.46875 116.703125 35.804688 117.359375 36.078125 C 118.015625 36.351562 118.691406 36.558594 119.390625 36.695312 C 120.085938 36.835938 120.789062 36.90625 121.5 36.90625 Z M 121.5 18.242188 C 122.007812 18.242188 122.511719 18.292969 123.007812 18.394531 C 123.507812 18.492188 123.988281 18.640625 124.460938 18.835938 C 124.929688 19.03125 125.375 19.269531 125.796875 19.554688 C 126.21875 19.839844 126.609375 20.160156 126.96875 20.519531 C 127.324219 20.882812 127.644531 21.273438 127.929688 21.699219 C 128.210938 22.125 128.449219 22.574219 128.644531 23.042969 C 128.835938 23.515625 128.984375 24.003906 129.082031 24.503906 C 129.183594 25.003906 129.230469 25.507812 129.230469 26.019531 C 129.230469 26.53125 129.183594 27.035156 129.082031 27.535156 C 128.984375 28.039062 128.835938 28.523438 128.644531 28.996094 C 128.449219 29.46875 128.210938 29.914062 127.929688 30.339844 C 127.644531 30.765625 127.324219 31.15625 126.96875 31.519531 C 126.609375 31.878906 126.21875 32.203125 125.796875 32.484375 C 125.375 32.769531 124.929688 33.007812 124.460938 33.203125 C 123.988281 33.398438 123.507812 33.546875 123.007812 33.644531 C 122.511719 33.746094 122.007812 33.796875 121.5 33.796875 C 120.992188 33.796875 120.492188 33.746094 119.992188 33.644531 C 119.496094 33.546875 119.011719 33.398438 118.542969 33.203125 C 118.074219 33.007812 117.628906 32.769531 117.207031 32.484375 C 116.785156 32.203125 116.394531 31.878906 116.035156 31.519531 C 115.675781 31.15625 115.355469 30.765625 115.074219 30.339844 C 114.789062 29.914062 114.550781 29.46875 114.359375 28.996094 C 114.164062 28.523438 114.015625 28.039062 113.917969 27.535156 C 113.820312 27.035156 113.769531 26.53125 113.769531 26.019531 C 113.765625 25.507812 113.808594 24.996094 113.90625 24.492188 C 114 23.988281 114.144531 23.496094 114.335938 23.019531 C 114.527344 22.542969 114.765625 22.089844 115.046875 21.664062 C 115.328125 21.234375 115.648438 20.835938 116.007812 20.472656 C 116.367188 20.105469 116.757812 19.78125 117.179688 19.492188 C 117.605469 19.207031 118.050781 18.964844 118.523438 18.765625 C 118.996094 18.566406 119.480469 18.417969 119.984375 18.316406 C 120.484375 18.214844 120.988281 18.167969 121.5 18.167969 Z M 121.5 18.242188 " fill-opacity="1" fill-rule="nonzero"/><g clip-path="url(#clip-2)"><path fill="rgb(20.779419%, 92.549133%, 50.588989%)" d="M 130.371094 107.234375 C 130.648438 107.230469 130.902344 107.160156 131.140625 107.023438 C 131.378906 106.882812 131.566406 106.695312 131.703125 106.453125 C 148.089844 78.277344 149.082031 46.300781 134.777344 8.699219 C 134.714844 8.519531 134.617188 8.359375 134.492188 8.214844 C 134.367188 8.070312 134.222656 7.957031 134.054688 7.867188 C 133.886719 7.777344 133.710938 7.71875 133.523438 7.695312 C 133.332031 7.671875 133.148438 7.683594 132.964844 7.726562 C 132.78125 7.773438 132.609375 7.851562 132.453125 7.957031 C 132.296875 8.066406 132.164062 8.199219 132.058594 8.355469 C 131.949219 8.511719 131.875 8.683594 131.828125 8.867188 C 131.78125 9.054688 131.773438 9.238281 131.792969 9.429688 C 133.21875 22.914062 131.269531 31.449219 125.996094 34.761719 C 119.300781 38.960938 106.792969 35.367188 88.8125 24.046875 C 88.640625 23.933594 88.453125 23.855469 88.253906 23.816406 C 88.050781 23.777344 87.847656 23.777344 87.648438 23.816406 C 87.445312 23.859375 87.261719 23.9375 87.089844 24.050781 C 86.917969 24.167969 86.777344 24.3125 86.664062 24.484375 C 86.550781 24.65625 86.472656 24.84375 86.433594 25.046875 C 86.394531 25.25 86.394531 25.453125 86.433594 25.652344 C 86.476562 25.855469 86.550781 26.042969 86.667969 26.214844 C 86.78125 26.386719 86.925781 26.53125 87.09375 26.644531 C 106.933594 40.578125 116.765625 53.640625 117.167969 66.597656 C 117.445312 77.683594 110.441406 89.039062 96.296875 100.25 C 96.148438 100.367188 96.027344 100.503906 95.929688 100.664062 C 95.832031 100.824219 95.769531 100.996094 95.734375 101.183594 C 95.699219 101.367188 95.695312 101.550781 95.726562 101.734375 C 95.761719 101.921875 95.824219 102.09375 95.917969 102.257812 C 96.011719 102.417969 96.132812 102.558594 96.277344 102.675781 C 96.421875 102.796875 96.582031 102.886719 96.757812 102.945312 C 96.933594 103.003906 97.117188 103.03125 97.304688 103.027344 C 97.488281 103.019531 97.667969 102.980469 97.839844 102.910156 C 108.757812 98.242188 121.882812 91.167969 129.566406 78.429688 C 130.417969 85.429688 130.171875 94.183594 128.796875 105.492188 C 128.765625 105.675781 128.769531 105.863281 128.804688 106.046875 C 128.84375 106.234375 128.910156 106.40625 129.011719 106.566406 C 129.109375 106.726562 129.234375 106.863281 129.382812 106.980469 C 129.53125 107.09375 129.699219 107.179688 129.878906 107.234375 C 130.042969 107.257812 130.207031 107.257812 130.371094 107.234375 Z M 135.304688 19.613281 C 144.613281 49.070312 143.746094 74.839844 132.628906 97.902344 C 133.464844 87.683594 133.1875 79.753906 131.792969 73.332031 C 131.707031 73.03125 131.542969 72.78125 131.300781 72.582031 C 131.0625 72.382812 130.789062 72.265625 130.480469 72.234375 C 130.175781 72.199219 129.882812 72.253906 129.605469 72.394531 C 129.332031 72.539062 129.117188 72.746094 128.964844 73.019531 C 124.851562 81.851562 117.832031 88.882812 106.699219 95.101562 C 115.976562 85.664062 120.492188 76.066406 120.230469 66.488281 C 119.921875 56.113281 114.214844 45.804688 102.851562 35.246094 C 113.921875 40.175781 122.101562 40.859375 127.589844 37.375 C 132.414062 34.390625 134.949219 28.542969 135.304688 19.613281 Z M 135.304688 19.613281 " fill-opacity="1" fill-rule="nonzero"/></g><path fill="rgb(20.779419%, 92.549133%, 50.588989%)" d="M 118.375 35.308594 C 119.085938 35.308594 119.789062 35.238281 120.484375 35.097656 C 121.183594 34.957031 121.859375 34.75 122.515625 34.476562 C 123.171875 34.203125 123.796875 33.871094 124.386719 33.472656 C 124.976562 33.074219 125.523438 32.625 126.027344 32.117188 C 126.53125 31.613281 126.976562 31.0625 127.375 30.46875 C 127.769531 29.875 128.101562 29.246094 128.375 28.585938 C 128.644531 27.925781 128.851562 27.246094 128.988281 26.542969 C 129.128906 25.84375 129.195312 25.136719 129.195312 24.421875 C 129.195312 23.707031 129.128906 22.996094 128.988281 22.296875 C 128.851562 21.597656 128.644531 20.914062 128.375 20.253906 C 128.101562 19.59375 127.769531 18.96875 127.375 18.371094 C 126.976562 17.777344 126.53125 17.226562 126.027344 16.722656 C 125.523438 16.21875 124.976562 15.765625 124.386719 15.371094 C 123.796875 14.972656 123.171875 14.636719 122.515625 14.363281 C 121.859375 14.089844 121.183594 13.882812 120.484375 13.742188 C 119.789062 13.605469 119.085938 13.535156 118.375 13.535156 C 117.664062 13.535156 116.960938 13.605469 116.261719 13.742188 C 115.566406 13.882812 114.890625 14.089844 114.230469 14.363281 C 113.574219 14.636719 112.953125 14.972656 112.359375 15.371094 C 111.769531 15.765625 111.222656 16.21875 110.722656 16.722656 C 110.21875 17.226562 109.769531 17.777344 109.375 18.371094 C 108.980469 18.96875 108.648438 19.59375 108.375 20.253906 C 108.101562 20.914062 107.898438 21.597656 107.757812 22.296875 C 107.621094 22.996094 107.550781 23.707031 107.550781 24.421875 C 107.550781 25.136719 107.621094 25.84375 107.757812 26.542969 C 107.898438 27.246094 108.101562 27.925781 108.375 28.585938 C 108.648438 29.246094 108.980469 29.875 109.375 30.46875 C 109.769531 31.0625 110.21875 31.613281 110.722656 32.117188 C 111.222656 32.625 111.769531 33.074219 112.359375 33.472656 C 112.953125 33.871094 113.574219 34.203125 114.230469 34.476562 C 114.890625 34.75 115.566406 34.957031 116.261719 35.097656 C 116.960938 35.238281 117.664062 35.308594 118.375 35.308594 Z M 118.375 16.644531 C 118.882812 16.644531 119.382812 16.695312 119.882812 16.792969 C 120.378906 16.894531 120.863281 17.042969 121.332031 17.238281 C 121.800781 17.433594 122.246094 17.671875 122.667969 17.957031 C 123.089844 18.238281 123.480469 18.5625 123.839844 18.921875 C 124.199219 19.285156 124.519531 19.675781 124.800781 20.101562 C 125.085938 20.523438 125.320312 20.972656 125.515625 21.445312 C 125.710938 21.917969 125.855469 22.402344 125.957031 22.902344 C 126.054688 23.40625 126.105469 23.910156 126.105469 24.421875 C 126.105469 24.929688 126.054688 25.4375 125.957031 25.9375 C 125.855469 26.4375 125.710938 26.925781 125.515625 27.394531 C 125.320312 27.867188 125.085938 28.316406 124.800781 28.742188 C 124.519531 29.164062 124.199219 29.558594 123.839844 29.917969 C 123.480469 30.28125 123.089844 30.601562 122.667969 30.886719 C 122.246094 31.167969 121.800781 31.410156 121.332031 31.605469 C 120.863281 31.800781 120.378906 31.949219 119.882812 32.046875 C 119.382812 32.148438 118.882812 32.195312 118.375 32.195312 C 117.867188 32.195312 117.363281 32.148438 116.867188 32.046875 C 116.367188 31.949219 115.882812 31.800781 115.414062 31.605469 C 114.945312 31.410156 114.5 31.167969 114.078125 30.886719 C 113.65625 30.601562 113.265625 30.28125 112.90625 29.917969 C 112.546875 29.558594 112.226562 29.164062 111.945312 28.742188 C 111.664062 28.316406 111.425781 27.867188 111.230469 27.394531 C 111.039062 26.925781 110.890625 26.4375 110.792969 25.9375 C 110.691406 25.4375 110.644531 24.929688 110.644531 24.421875 C 110.636719 23.90625 110.683594 23.398438 110.777344 22.894531 C 110.875 22.386719 111.015625 21.898438 111.210938 21.421875 C 111.402344 20.945312 111.636719 20.492188 111.917969 20.0625 C 112.199219 19.632812 112.519531 19.238281 112.878906 18.871094 C 113.238281 18.507812 113.632812 18.179688 114.054688 17.894531 C 114.476562 17.605469 114.925781 17.363281 115.398438 17.167969 C 115.871094 16.96875 116.355469 16.820312 116.855469 16.71875 C 117.355469 16.617188 117.863281 16.566406 118.375 16.566406 Z M 118.375 16.644531 " fill-opacity="1" fill-rule="nonzero"/><g clip-path="url(#clip-3)"><path fill="rgb(20.779419%, 92.549133%, 50.588989%)" d="M 106.839844 105.640625 L 93.761719 80.769531 C 101.03125 77.367188 105.480469 70.167969 105.480469 61.578125 C 105.480469 48.269531 95.65625 39.667969 80.457031 39.667969 L 53.101562 39.667969 C 52.25 39.667969 51.558594 40.363281 51.558594 41.21875 L 51.558594 106.367188 C 51.558594 107.222656 52.25 107.917969 53.101562 107.917969 L 63.882812 107.917969 C 64.734375 107.917969 65.425781 107.222656 65.425781 106.367188 L 65.425781 83.101562 L 79.292969 83.101562 L 91.914062 107.09375 C 92.179688 107.601562 92.703125 107.917969 93.273438 107.917969 L 105.480469 107.917969 C 106.019531 107.917969 106.519531 107.632812 106.796875 107.167969 C 107.078125 106.699219 107.09375 106.121094 106.839844 105.640625 Z M 79.328125 72.242188 L 65.425781 72.242188 L 65.425781 50.527344 L 79.042969 50.527344 C 86.851562 50.527344 91.613281 54.664062 91.613281 61.40625 C 91.613281 68.285156 87.140625 72.242188 79.328125 72.242188 Z M 79.328125 72.242188 " fill-opacity="1" fill-rule="nonzero"/></g></svg>