<?xml version="1.0" encoding="UTF-8"?><svg xmlns="http://www.w3.org/2000/svg" xmlns:xlink="http://www.w3.org/1999/xlink" contentScriptType="text/ecmascript" width="150" zoomAndPan="magnify" contentStyleType="text/css" viewBox="0 0 150 149.999998" height="149.999998" preserveAspectRatio="xMidYMid meet" version="1.0"><defs><clipPath id="clip-0"><path d="M 28.59375 31.308594 L 97.59375 31.308594 L 97.59375 119 L 28.59375 119 Z M 28.59375 31.308594 " clip-rule="nonzero"/></clipPath><clipPath id="clip-1"><path d="M 85.4375 33.84375 L 139.4375 33.84375 L 139.4375 99.84375 L 85.4375 99.84375 Z M 85.4375 33.84375 " clip-rule="nonzero"/></clipPath><clipPath id="clip-2"><path d="M 83.1875 31.308594 L 137.1875 31.308594 L 137.1875 97.308594 L 83.1875 97.308594 Z M 83.1875 31.308594 " clip-rule="nonzero"/></clipPath><clipPath id="clip-3"><path d="M 7 29 L 52 29 L 52 104.511719 L 7 104.511719 Z M 7 29 " clip-rule="nonzero"/></clipPath><clipPath id="clip-4"><path d="M 4 27.699219 L 49.671875 27.699219 L 49.671875 103.296875 L 4 103.296875 Z M 4 27.699219 " clip-rule="nonzero"/></clipPath></defs><g clip-path="url(#clip-0)"><path fill="rgb(0%, 29.019165%, 67.83905%)" d="M 97.59375 83.507812 L 97.59375 31.332031 L 38.144531 31.332031 L 38.144531 56.871094 L 65.65625 56.871094 L 65.65625 85.097656 C 65.65625 91.855469 62.074219 92.648438 59.335938 92.648438 C 55.753906 92.648438 52.324219 90.414062 48.441406 85.59375 L 46.550781 83.257812 L 28.59375 104.527344 L 29.984375 106.117188 C 37.101562 114.414062 48.34375 118.984375 61.726562 118.984375 C 85.207031 119.035156 97.59375 106.761719 97.59375 83.507812 Z M 97.59375 83.507812 " fill-opacity="1" fill-rule="nonzero"/></g><g clip-path="url(#clip-1)"><path fill="rgb(0%, 29.019165%, 67.83905%)" d="M 86.957031 33.84375 C 86.757812 33.84375 86.566406 33.878906 86.382812 33.957031 C 86.199219 34.03125 86.039062 34.140625 85.898438 34.28125 C 85.757812 34.421875 85.648438 34.585938 85.574219 34.769531 C 85.496094 34.953125 85.457031 35.144531 85.457031 35.34375 L 85.457031 98.34375 C 85.457031 98.539062 85.496094 98.730469 85.574219 98.914062 C 85.648438 99.101562 85.757812 99.261719 85.898438 99.402344 C 86.039062 99.542969 86.199219 99.652344 86.382812 99.726562 C 86.566406 99.804688 86.757812 99.84375 86.957031 99.84375 L 98.949219 99.84375 C 99.148438 99.839844 99.339844 99.804688 99.523438 99.726562 C 99.707031 99.652344 99.867188 99.542969 100.007812 99.402344 C 100.148438 99.261719 100.257812 99.097656 100.332031 98.914062 C 100.410156 98.730469 100.449219 98.539062 100.449219 98.34375 L 100.449219 75.84375 L 110.746094 75.84375 L 123.023438 99.046875 C 123.15625 99.289062 123.339844 99.484375 123.578125 99.628906 C 123.816406 99.769531 124.074219 99.84375 124.351562 99.84375 L 137.921875 99.84375 C 138.050781 99.839844 138.175781 99.824219 138.300781 99.792969 C 138.425781 99.757812 138.546875 99.710938 138.65625 99.648438 C 138.769531 99.582031 138.871094 99.507812 138.964844 99.417969 C 139.058594 99.324219 139.136719 99.226562 139.203125 99.113281 C 139.269531 99.003906 139.320312 98.886719 139.359375 98.761719 C 139.394531 98.636719 139.414062 98.511719 139.417969 98.382812 C 139.421875 98.253906 139.410156 98.125 139.378906 98 C 139.347656 97.875 139.304688 97.753906 139.242188 97.640625 L 126.425781 73.417969 C 133.601562 70.0625 137.921875 63.148438 137.921875 55.03125 C 137.921875 48.609375 135.449219 43.203125 131.132812 39.511719 C 126.8125 35.820312 120.730469 33.84375 113.574219 33.84375 Z M 88.457031 36.84375 L 113.574219 36.84375 C 120.179688 36.84375 125.523438 38.664062 129.1875 41.792969 C 132.851562 44.921875 134.921875 49.359375 134.921875 55.03125 C 134.921875 62.65625 130.929688 68.839844 123.910156 71.425781 C 123.816406 71.460938 123.726562 71.503906 123.644531 71.558594 L 123.757812 71.503906 C 123.535156 71.613281 123.355469 71.765625 123.210938 71.964844 C 123.207031 71.96875 123.203125 71.972656 123.199219 71.976562 C 123.191406 71.992188 123.183594 72.007812 123.175781 72.023438 C 123.152344 72.050781 123.132812 72.082031 123.117188 72.117188 C 123.09375 72.160156 123.070312 72.203125 123.050781 72.25 C 123.035156 72.292969 123.019531 72.332031 123.003906 72.375 C 122.992188 72.414062 122.980469 72.449219 122.972656 72.488281 C 122.96875 72.496094 122.96875 72.503906 122.964844 72.515625 C 122.945312 72.609375 122.933594 72.707031 122.929688 72.808594 C 122.925781 73.066406 122.980469 73.3125 123.105469 73.546875 L 135.433594 96.84375 L 125.253906 96.84375 L 112.976562 73.640625 C 112.84375 73.394531 112.660156 73.199219 112.421875 73.054688 C 112.1875 72.914062 111.929688 72.84375 111.652344 72.84375 L 98.949219 72.84375 C 98.75 72.84375 98.558594 72.878906 98.375 72.957031 C 98.191406 73.03125 98.03125 73.140625 97.890625 73.28125 C 97.75 73.421875 97.640625 73.585938 97.5625 73.769531 C 97.488281 73.953125 97.449219 74.144531 97.449219 74.34375 L 97.449219 96.84375 L 88.457031 96.84375 Z M 98.949219 42.84375 C 98.75 42.84375 98.558594 42.878906 98.375 42.957031 C 98.191406 43.03125 98.03125 43.140625 97.890625 43.28125 C 97.75 43.421875 97.640625 43.585938 97.5625 43.769531 C 97.488281 43.953125 97.449219 44.144531 97.449219 44.34375 L 97.449219 65.34375 C 97.449219 65.539062 97.488281 65.730469 97.5625 65.914062 C 97.640625 66.101562 97.75 66.261719 97.890625 66.402344 C 98.03125 66.542969 98.191406 66.652344 98.375 66.726562 C 98.558594 66.804688 98.75 66.84375 98.949219 66.84375 L 112.476562 66.84375 C 116.527344 66.84375 119.90625 65.816406 122.289062 63.726562 C 124.675781 61.632812 125.929688 58.519531 125.929688 54.867188 C 125.929688 51.25 124.585938 48.125 122.140625 46.019531 C 119.695312 43.914062 116.261719 42.84375 112.199219 42.84375 Z M 100.449219 45.84375 L 112.199219 45.84375 C 115.734375 45.84375 118.414062 46.769531 120.183594 48.292969 C 121.957031 49.820312 122.929688 51.960938 122.929688 54.867188 C 122.929688 57.863281 122.003906 59.984375 120.3125 61.46875 C 118.621094 62.953125 116.023438 63.84375 112.476562 63.84375 L 100.449219 63.84375 Z M 100.449219 45.84375 " fill-opacity="1" fill-rule="nonzero"/></g><g clip-path="url(#clip-2)"><path fill="rgb(20.779419%, 92.549133%, 50.588989%)" d="M 84.707031 31.308594 C 84.507812 31.308594 84.316406 31.347656 84.132812 31.421875 C 83.949219 31.5 83.789062 31.609375 83.648438 31.75 C 83.507812 31.890625 83.398438 32.050781 83.324219 32.234375 C 83.246094 32.417969 83.207031 32.609375 83.207031 32.808594 L 83.207031 95.808594 C 83.207031 96.007812 83.246094 96.199219 83.324219 96.382812 C 83.398438 96.566406 83.507812 96.730469 83.648438 96.871094 C 83.789062 97.011719 83.949219 97.117188 84.132812 97.195312 C 84.316406 97.269531 84.507812 97.308594 84.707031 97.308594 L 96.699219 97.308594 C 96.898438 97.308594 97.089844 97.269531 97.273438 97.195312 C 97.457031 97.117188 97.617188 97.011719 97.757812 96.871094 C 97.898438 96.730469 98.007812 96.566406 98.082031 96.382812 C 98.160156 96.199219 98.199219 96.007812 98.199219 95.808594 L 98.199219 73.308594 L 108.496094 73.308594 L 120.773438 96.511719 C 120.90625 96.757812 121.089844 96.953125 121.328125 97.09375 C 121.566406 97.238281 121.824219 97.308594 122.101562 97.308594 L 135.671875 97.308594 C 135.800781 97.308594 135.925781 97.292969 136.050781 97.257812 C 136.175781 97.226562 136.296875 97.175781 136.40625 97.113281 C 136.519531 97.050781 136.621094 96.972656 136.714844 96.882812 C 136.808594 96.792969 136.886719 96.691406 136.953125 96.582031 C 137.019531 96.46875 137.070312 96.351562 137.109375 96.230469 C 137.144531 96.105469 137.164062 95.976562 137.167969 95.847656 C 137.171875 95.71875 137.160156 95.589844 137.128906 95.464844 C 137.097656 95.339844 137.054688 95.21875 136.992188 95.105469 L 124.175781 70.886719 C 131.351562 67.53125 135.671875 60.613281 135.671875 52.5 C 135.671875 46.074219 133.199219 40.667969 128.882812 36.976562 C 124.5625 33.285156 118.480469 31.308594 111.324219 31.308594 Z M 86.207031 34.308594 L 111.324219 34.308594 C 117.929688 34.308594 123.273438 36.128906 126.9375 39.261719 C 130.601562 42.390625 132.671875 46.828125 132.671875 52.5 C 132.671875 60.121094 128.679688 66.308594 121.660156 68.894531 C 121.566406 68.929688 121.476562 68.972656 121.394531 69.027344 L 121.507812 68.96875 C 121.285156 69.078125 121.105469 69.234375 120.960938 69.433594 C 120.957031 69.4375 120.953125 69.441406 120.949219 69.445312 C 120.941406 69.457031 120.933594 69.472656 120.925781 69.488281 C 120.902344 69.519531 120.882812 69.550781 120.867188 69.582031 C 120.84375 69.625 120.820312 69.671875 120.800781 69.71875 C 120.785156 69.757812 120.769531 69.800781 120.753906 69.84375 C 120.742188 69.878906 120.730469 69.917969 120.722656 69.953125 C 120.71875 69.964844 120.71875 69.972656 120.714844 69.980469 C 120.695312 70.078125 120.683594 70.175781 120.679688 70.273438 C 120.675781 70.535156 120.730469 70.78125 120.855469 71.011719 L 133.183594 94.308594 L 123.003906 94.308594 L 110.726562 71.105469 C 110.59375 70.859375 110.410156 70.667969 110.171875 70.523438 C 109.9375 70.378906 109.679688 70.308594 109.402344 70.308594 L 96.699219 70.308594 C 96.5 70.308594 96.308594 70.347656 96.125 70.421875 C 95.941406 70.5 95.78125 70.609375 95.640625 70.75 C 95.5 70.890625 95.390625 71.050781 95.3125 71.234375 C 95.238281 71.417969 95.199219 71.609375 95.199219 71.808594 L 95.199219 94.308594 L 86.207031 94.308594 Z M 96.699219 40.308594 C 96.5 40.308594 96.308594 40.347656 96.125 40.421875 C 95.941406 40.5 95.78125 40.609375 95.640625 40.75 C 95.5 40.890625 95.390625 41.050781 95.3125 41.234375 C 95.238281 41.417969 95.199219 41.609375 95.199219 41.808594 L 95.199219 62.808594 C 95.199219 63.007812 95.238281 63.199219 95.3125 63.382812 C 95.390625 63.566406 95.5 63.730469 95.640625 63.871094 C 95.78125 64.011719 95.941406 64.117188 96.125 64.195312 C 96.308594 64.269531 96.5 64.308594 96.699219 64.308594 L 110.226562 64.308594 C 114.277344 64.308594 117.65625 63.285156 120.039062 61.191406 C 122.425781 59.097656 123.679688 55.984375 123.679688 52.332031 C 123.679688 48.714844 122.335938 45.59375 119.890625 43.488281 C 117.445312 41.382812 114.011719 40.308594 109.949219 40.308594 Z M 98.199219 43.308594 L 109.949219 43.308594 C 113.484375 43.308594 116.164062 44.234375 117.933594 45.761719 C 119.707031 47.285156 120.679688 49.425781 120.679688 52.332031 C 120.679688 55.328125 119.753906 57.453125 118.0625 58.9375 C 116.371094 60.417969 113.773438 61.308594 110.226562 61.308594 L 98.199219 61.308594 Z M 98.199219 43.308594 " fill-opacity="1" fill-rule="nonzero"/></g><g clip-path="url(#clip-3)"><path fill="rgb(0%, 29.019165%, 67.83905%)" d="M 18.226562 104.511719 C 17.777344 104.507812 17.441406 104.3125 17.21875 103.921875 C 4.789062 82.550781 4.039062 58.304688 14.882812 29.785156 C 14.988281 29.507812 15.171875 29.296875 15.433594 29.15625 C 15.695312 29.015625 15.972656 28.980469 16.261719 29.050781 C 16.550781 29.121094 16.777344 29.28125 16.949219 29.527344 C 17.117188 29.773438 17.183594 30.042969 17.148438 30.339844 C 16.066406 40.566406 17.546875 47.039062 21.542969 49.554688 C 26.621094 52.738281 36.105469 50.011719 49.742188 41.425781 C 49.875 41.339844 50.015625 41.28125 50.167969 41.25 C 50.320312 41.222656 50.472656 41.222656 50.625 41.253906 C 50.777344 41.285156 50.921875 41.34375 51.050781 41.429688 C 51.179688 41.519531 51.285156 41.625 51.375 41.757812 C 51.460938 41.886719 51.515625 42.03125 51.546875 42.183594 C 51.578125 42.335938 51.578125 42.492188 51.546875 42.644531 C 51.515625 42.800781 51.457031 42.941406 51.371094 43.070312 C 51.285156 43.199219 51.175781 43.308594 51.046875 43.398438 C 36 53.964844 28.542969 63.871094 28.238281 73.695312 C 28.027344 82.101562 33.339844 90.710938 44.070312 99.214844 C 44.296875 99.398438 44.441406 99.632812 44.496094 99.921875 C 44.550781 100.210938 44.503906 100.484375 44.355469 100.738281 C 44.207031 100.992188 43.996094 101.164062 43.71875 101.261719 C 43.441406 101.355469 43.167969 101.34375 42.894531 101.234375 C 34.617188 97.695312 24.664062 92.328125 18.835938 82.667969 C 18.191406 87.976562 18.378906 94.617188 19.421875 103.191406 C 19.46875 103.484375 19.414062 103.753906 19.257812 104.007812 C 19.101562 104.257812 18.882812 104.425781 18.601562 104.511719 C 18.476562 104.53125 18.351562 104.53125 18.226562 104.511719 Z M 14.484375 38.066406 C 7.425781 60.402344 8.082031 79.945312 16.515625 97.433594 C 15.878906 89.6875 16.089844 83.671875 17.148438 78.800781 C 17.214844 78.574219 17.339844 78.386719 17.519531 78.234375 C 17.699219 78.082031 17.910156 77.996094 18.140625 77.96875 C 18.375 77.941406 18.597656 77.984375 18.808594 78.09375 C 19.015625 78.203125 19.179688 78.359375 19.292969 78.566406 C 22.410156 85.265625 27.734375 90.59375 36.175781 95.3125 C 29.140625 88.152344 25.71875 80.875 25.917969 73.613281 C 26.152344 65.746094 30.480469 57.925781 39.097656 49.917969 C 30.703125 53.65625 24.5 54.175781 20.335938 51.535156 C 16.679688 49.269531 14.753906 44.835938 14.484375 38.066406 Z M 14.484375 38.066406 " fill-opacity="1" fill-rule="nonzero"/></g><path fill="rgb(0%, 29.019165%, 67.83905%)" d="M 27.324219 49.964844 C 26.785156 49.964844 26.253906 49.914062 25.722656 49.808594 C 25.195312 49.703125 24.679688 49.542969 24.183594 49.335938 C 23.6875 49.128906 23.210938 48.875 22.765625 48.574219 C 22.316406 48.273438 21.902344 47.929688 21.519531 47.546875 C 21.140625 47.164062 20.800781 46.746094 20.5 46.296875 C 20.199219 45.847656 19.949219 45.371094 19.742188 44.871094 C 19.535156 44.367188 19.378906 43.851562 19.273438 43.320312 C 19.167969 42.789062 19.117188 42.253906 19.117188 41.710938 C 19.117188 41.167969 19.167969 40.632812 19.273438 40.097656 C 19.378906 39.566406 19.535156 39.050781 19.742188 38.550781 C 19.949219 38.050781 20.199219 37.574219 20.5 37.125 C 20.800781 36.671875 21.140625 36.253906 21.519531 35.871094 C 21.902344 35.488281 22.316406 35.148438 22.765625 34.847656 C 23.210938 34.542969 23.6875 34.289062 24.183594 34.082031 C 24.679688 33.875 25.195312 33.71875 25.722656 33.613281 C 26.253906 33.507812 26.785156 33.453125 27.324219 33.453125 C 27.863281 33.453125 28.398438 33.507812 28.925781 33.613281 C 29.453125 33.71875 29.96875 33.875 30.464844 34.082031 C 30.964844 34.289062 31.4375 34.542969 31.882812 34.847656 C 32.332031 35.148438 32.746094 35.488281 33.128906 35.871094 C 33.507812 36.253906 33.851562 36.671875 34.148438 37.125 C 34.449219 37.574219 34.703125 38.050781 34.90625 38.550781 C 35.113281 39.050781 35.269531 39.566406 35.375 40.097656 C 35.480469 40.632812 35.53125 41.167969 35.53125 41.710938 C 35.53125 42.253906 35.480469 42.789062 35.375 43.320312 C 35.269531 43.851562 35.113281 44.367188 34.90625 44.871094 C 34.703125 45.371094 34.449219 45.847656 34.148438 46.296875 C 33.851562 46.746094 33.507812 47.164062 33.128906 47.546875 C 32.746094 47.929688 32.332031 48.273438 31.882812 48.574219 C 31.4375 48.875 30.964844 49.128906 30.464844 49.335938 C 29.96875 49.542969 29.453125 49.703125 28.925781 49.808594 C 28.398438 49.914062 27.863281 49.964844 27.324219 49.964844 Z M 27.324219 35.8125 C 26.941406 35.8125 26.558594 35.851562 26.179688 35.925781 C 25.804688 36.003906 25.4375 36.113281 25.082031 36.261719 C 24.726562 36.410156 24.386719 36.59375 24.066406 36.808594 C 23.746094 37.023438 23.453125 37.265625 23.179688 37.539062 C 22.90625 37.8125 22.664062 38.113281 22.449219 38.433594 C 22.234375 38.753906 22.054688 39.09375 21.910156 39.453125 C 21.761719 39.8125 21.648438 40.179688 21.574219 40.558594 C 21.5 40.9375 21.460938 41.324219 21.460938 41.710938 C 21.460938 42.097656 21.5 42.480469 21.574219 42.859375 C 21.648438 43.238281 21.761719 43.609375 21.910156 43.964844 C 22.054688 44.324219 22.234375 44.664062 22.449219 44.984375 C 22.664062 45.308594 22.90625 45.605469 23.179688 45.878906 C 23.453125 46.152344 23.746094 46.398438 24.066406 46.613281 C 24.386719 46.828125 24.726562 47.011719 25.082031 47.15625 C 25.4375 47.304688 25.804688 47.417969 26.179688 47.492188 C 26.558594 47.570312 26.941406 47.605469 27.324219 47.605469 C 27.710938 47.605469 28.089844 47.570312 28.46875 47.492188 C 28.847656 47.417969 29.210938 47.304688 29.566406 47.15625 C 29.925781 47.011719 30.261719 46.828125 30.582031 46.613281 C 30.902344 46.398438 31.199219 46.152344 31.46875 45.878906 C 31.742188 45.605469 31.984375 45.308594 32.199219 44.984375 C 32.414062 44.664062 32.59375 44.324219 32.742188 43.964844 C 32.886719 43.609375 33 43.238281 33.074219 42.859375 C 33.148438 42.480469 33.1875 42.097656 33.1875 41.710938 C 33.191406 41.320312 33.15625 40.933594 33.085938 40.550781 C 33.011719 40.167969 32.902344 39.796875 32.757812 39.433594 C 32.613281 39.074219 32.433594 38.730469 32.21875 38.40625 C 32.007812 38.082031 31.765625 37.777344 31.492188 37.503906 C 31.21875 37.226562 30.921875 36.976562 30.601562 36.761719 C 30.277344 36.542969 29.941406 36.359375 29.582031 36.207031 C 29.222656 36.058594 28.855469 35.945312 28.476562 35.867188 C 28.097656 35.792969 27.710938 35.753906 27.324219 35.753906 Z M 27.324219 35.8125 " fill-opacity="1" fill-rule="nonzero"/><g clip-path="url(#clip-4)"><path fill="rgb(20.779419%, 92.549133%, 50.588989%)" d="M 15.855469 103.296875 C 15.40625 103.296875 15.070312 103.097656 14.847656 102.707031 C 2.417969 81.339844 1.667969 57.089844 12.511719 28.574219 C 12.617188 28.292969 12.800781 28.082031 13.0625 27.941406 C 13.324219 27.800781 13.601562 27.769531 13.890625 27.839844 C 14.179688 27.910156 14.40625 28.066406 14.578125 28.3125 C 14.746094 28.558594 14.8125 28.832031 14.777344 29.128906 C 13.699219 39.351562 15.175781 45.828125 19.171875 48.339844 C 24.25 51.523438 33.734375 48.800781 47.371094 40.214844 C 47.503906 40.128906 47.644531 40.070312 47.796875 40.039062 C 47.949219 40.007812 48.101562 40.007812 48.253906 40.039062 C 48.410156 40.070312 48.550781 40.128906 48.679688 40.21875 C 48.808594 40.304688 48.914062 40.414062 49.003906 40.542969 C 49.089844 40.675781 49.148438 40.816406 49.175781 40.972656 C 49.207031 41.125 49.207031 41.277344 49.175781 41.433594 C 49.144531 41.585938 49.085938 41.726562 49 41.859375 C 48.914062 41.988281 48.804688 42.097656 48.675781 42.183594 C 33.628906 52.75 26.171875 62.65625 25.867188 72.480469 C 25.65625 80.890625 30.96875 89.5 41.699219 98.003906 C 41.925781 98.183594 42.070312 98.421875 42.125 98.710938 C 42.179688 99 42.132812 99.269531 41.984375 99.523438 C 41.835938 99.777344 41.625 99.953125 41.347656 100.046875 C 41.070312 100.140625 40.796875 100.132812 40.523438 100.019531 C 32.246094 96.480469 22.292969 91.117188 16.464844 81.457031 C 15.820312 86.765625 16.007812 93.402344 17.050781 101.976562 C 17.097656 102.269531 17.042969 102.542969 16.886719 102.792969 C 16.730469 103.046875 16.511719 103.214844 16.230469 103.296875 C 16.105469 103.316406 15.980469 103.316406 15.855469 103.296875 Z M 12.113281 36.851562 C 5.054688 59.191406 5.710938 78.730469 14.144531 96.222656 C 13.507812 88.472656 13.722656 82.460938 14.777344 77.589844 C 14.84375 77.363281 14.96875 77.171875 15.148438 77.023438 C 15.332031 76.871094 15.539062 76.78125 15.769531 76.757812 C 16.003906 76.730469 16.226562 76.773438 16.4375 76.878906 C 16.644531 76.988281 16.808594 77.144531 16.921875 77.351562 C 20.039062 84.050781 25.363281 89.382812 33.804688 94.097656 C 26.769531 86.941406 23.347656 79.664062 23.546875 72.398438 C 23.78125 64.53125 28.109375 56.714844 36.726562 48.707031 C 28.332031 52.445312 22.128906 52.964844 17.964844 50.320312 C 14.308594 48.058594 12.382812 43.621094 12.113281 36.851562 Z M 12.113281 36.851562 " fill-opacity="1" fill-rule="nonzero"/></g><path fill="rgb(20.779419%, 92.549133%, 50.588989%)" d="M 24.953125 48.753906 C 24.414062 48.753906 23.882812 48.699219 23.351562 48.59375 C 22.824219 48.488281 22.3125 48.332031 21.8125 48.125 C 21.316406 47.917969 20.84375 47.664062 20.394531 47.363281 C 19.945312 47.058594 19.53125 46.71875 19.148438 46.335938 C 18.769531 45.953125 18.429688 45.535156 18.128906 45.082031 C 17.828125 44.632812 17.578125 44.15625 17.371094 43.65625 C 17.164062 43.15625 17.007812 42.640625 16.902344 42.109375 C 16.796875 41.578125 16.746094 41.039062 16.746094 40.496094 C 16.746094 39.957031 16.796875 39.417969 16.902344 38.886719 C 17.007812 38.355469 17.164062 37.839844 17.371094 37.339844 C 17.578125 36.835938 17.828125 36.363281 18.128906 35.910156 C 18.429688 35.460938 18.769531 35.042969 19.148438 34.660156 C 19.53125 34.277344 19.945312 33.933594 20.394531 33.632812 C 20.84375 33.332031 21.316406 33.078125 21.8125 32.871094 C 22.3125 32.664062 22.824219 32.507812 23.351562 32.398438 C 23.882812 32.292969 24.414062 32.242188 24.953125 32.242188 C 25.492188 32.242188 26.027344 32.292969 26.554688 32.398438 C 27.082031 32.507812 27.597656 32.664062 28.09375 32.871094 C 28.59375 33.078125 29.066406 33.332031 29.515625 33.632812 C 29.960938 33.933594 30.375 34.277344 30.757812 34.660156 C 31.136719 35.042969 31.480469 35.460938 31.777344 35.910156 C 32.078125 36.363281 32.332031 36.835938 32.535156 37.339844 C 32.742188 37.839844 32.898438 38.355469 33.003906 38.886719 C 33.109375 39.417969 33.160156 39.957031 33.160156 40.496094 C 33.160156 41.039062 33.109375 41.578125 33.003906 42.109375 C 32.898438 42.640625 32.742188 43.15625 32.535156 43.65625 C 32.332031 44.15625 32.078125 44.632812 31.777344 45.082031 C 31.480469 45.535156 31.136719 45.953125 30.757812 46.335938 C 30.375 46.71875 29.960938 47.058594 29.515625 47.363281 C 29.066406 47.664062 28.59375 47.917969 28.09375 48.125 C 27.597656 48.332031 27.082031 48.488281 26.554688 48.59375 C 26.027344 48.699219 25.492188 48.753906 24.953125 48.753906 Z M 24.953125 34.601562 C 24.570312 34.601562 24.1875 34.636719 23.808594 34.714844 C 23.433594 34.789062 23.066406 34.902344 22.710938 35.050781 C 22.355469 35.199219 22.015625 35.378906 21.695312 35.59375 C 21.375 35.808594 21.082031 36.054688 20.808594 36.328125 C 20.535156 36.601562 20.292969 36.898438 20.078125 37.222656 C 19.863281 37.542969 19.683594 37.882812 19.539062 38.242188 C 19.390625 38.597656 19.277344 38.96875 19.203125 39.347656 C 19.128906 39.726562 19.089844 40.109375 19.089844 40.496094 C 19.089844 40.882812 19.128906 41.269531 19.203125 41.648438 C 19.277344 42.027344 19.390625 42.394531 19.539062 42.753906 C 19.683594 43.113281 19.863281 43.453125 20.078125 43.773438 C 20.292969 44.09375 20.535156 44.394531 20.808594 44.667969 C 21.082031 44.941406 21.375 45.183594 21.695312 45.398438 C 22.015625 45.617188 22.355469 45.796875 22.710938 45.945312 C 23.066406 46.09375 23.433594 46.207031 23.808594 46.28125 C 24.1875 46.355469 24.570312 46.394531 24.953125 46.394531 C 25.339844 46.394531 25.71875 46.355469 26.097656 46.28125 C 26.476562 46.207031 26.839844 46.09375 27.199219 45.945312 C 27.554688 45.796875 27.890625 45.617188 28.210938 45.398438 C 28.53125 45.183594 28.828125 44.941406 29.097656 44.667969 C 29.371094 44.394531 29.613281 44.09375 29.828125 43.773438 C 30.042969 43.453125 30.222656 43.113281 30.371094 42.753906 C 30.515625 42.394531 30.628906 42.027344 30.703125 41.648438 C 30.777344 41.269531 30.816406 40.882812 30.816406 40.496094 C 30.820312 40.109375 30.785156 39.722656 30.714844 39.339844 C 30.640625 38.957031 30.53125 38.582031 30.386719 38.222656 C 30.242188 37.863281 30.0625 37.519531 29.847656 37.191406 C 29.636719 36.867188 29.394531 36.566406 29.121094 36.289062 C 28.847656 36.011719 28.550781 35.765625 28.230469 35.546875 C 27.90625 35.328125 27.570312 35.144531 27.210938 34.996094 C 26.851562 34.847656 26.484375 34.734375 26.105469 34.65625 C 25.726562 34.578125 25.339844 34.542969 24.953125 34.542969 Z M 24.953125 34.601562 " fill-opacity="1" fill-rule="nonzero"/></svg>